<svg width="24" height="21" viewBox="0 0 24 21" fill="none" xmlns="http://www.w3.org/2000/svg">
<path fill-rule="evenodd" clip-rule="evenodd" d="M1 0.995605C0 1 0 2 0 2V7C0 7.96262 1 7.99667 1 7.99667H3.81542C4.4353 7.99667 4.3283 8.43405 4.3283 8.43405C4.3283 8.43405 3.53735 12.6996 3.45213 13.4212C3.3666 14.1435 2.85371 14.6029 2.85371 14.6029C2.85371 14.6029 1.55549 14.9966 1.27774 15.1497C0.999992 15.3029 0.999992 16.0001 0.999992 16.0001H12V15.6307C12 15.1497 9.43636 14.6029 8.60311 14.5153C7.76955 14.4281 7.94062 13.8589 7.94062 13.8589L8.28244 11.0001H9.24414L9.59773 9.00007H8.63602L8.74206 8.00007H11.5C13.3597 7.80302 15 6.82284 15 6.82284L15 2.5C13.5254 1.4282 10.8801 0.995605 10.8801 0.995605H1ZM19.6213 3.69997H23.6584C23.8426 3.69997 23.9922 3.99237 23.9922 4.4422C23.9922 4.89203 23.8426 5.29997 23.6584 5.29997H19.6213C19.4223 6.0498 18.9575 6.99997 18.4161 6.99997H16V1.99997H18.4161C18.9578 1.99997 19.4223 2.95014 19.6213 3.69997ZM1.59842 20.9999C0.999999 20.9999 0.999999 20.3274 0.999999 20.3274V16.9998H12V20.3494C12 20.9395 11.359 20.9999 11.359 20.9999L1.59842 20.9999ZM11 2.50764V2.49238C11 2.22158 10.8592 2.00001 10.6872 2.00001H1.3128C1.14076 2.00001 1 2.22158 1 2.49238V2.50764C1 2.77844 1.14076 3.00001 1.3128 3.00001H10.6872C10.8592 3.00001 11 2.77844 11 2.50764Z" fill="white"/>
</svg>
