<svg width="138" height="23" viewBox="0 0 138 23" fill="none" xmlns="http://www.w3.org/2000/svg">
<path fill-rule="evenodd" clip-rule="evenodd" d="M132.694 3.39695V22.297H129.994V3.39695H125.194V1.29695H137.494V3.39695H132.694ZM122.299 14.5119C121.829 15.1019 121.239 15.5219 120.529 15.7719C119.819 16.0219 118.974 16.1469 117.994 16.1469C117.534 16.1469 117.014 16.1169 116.434 16.0569C115.854 15.9969 115.374 15.9269 114.994 15.8469V22.2969H112.294V1.59695C113.054 1.37695 113.819 1.22195 114.589 1.13195C115.359 1.04195 116.194 0.996948 117.094 0.996948C118.294 0.996948 119.314 1.12195 120.154 1.37195C120.994 1.62195 121.674 2.03695 122.194 2.61695C122.714 3.19695 123.094 3.96695 123.334 4.92695C123.574 5.88695 123.694 7.07695 123.694 8.49695C123.694 9.95695 123.579 11.1769 123.349 12.1569C123.119 13.1369 122.769 13.9219 122.299 14.5119ZM120.769 5.79694C120.619 5.07694 120.384 4.50694 120.064 4.08694C119.744 3.66694 119.339 3.37194 118.849 3.20194C118.359 3.03194 117.774 2.94694 117.094 2.94694H114.994V14.0469H117.094C117.774 14.0469 118.359 13.9619 118.849 13.7919C119.339 13.6219 119.744 13.3269 120.064 12.9069C120.384 12.4869 120.619 11.9169 120.769 11.1969C120.919 10.4769 120.994 9.57694 120.994 8.49694C120.994 7.41694 120.919 6.51694 120.769 5.79694ZM105.544 16.897H99.5441L98.1941 22.297H95.4941L100.594 1.29695H104.494L109.594 22.297H106.894L105.544 16.897ZM102.604 4.29694H102.484L99.9941 14.7969H105.094L102.604 4.29694ZM89.6441 6.69695H89.4941L85.1441 19.597H82.4441L78.0941 6.69695H77.9441L77.0441 22.297H74.3441L75.5441 1.29695H78.8441L83.7341 15.697H83.8541L88.7441 1.29695H92.0441L93.2441 22.297H90.5441L89.6441 6.69695ZM69.4841 20.3469C68.9241 21.1669 68.2491 21.7469 67.4591 22.0869C66.6691 22.4269 65.7641 22.5969 64.7441 22.5969C63.7241 22.5969 62.8191 22.4269 62.0291 22.0869C61.2391 21.7469 60.5641 21.1669 60.0041 20.3469C59.4441 19.5269 59.0191 18.4219 58.7291 17.0319C58.4391 15.6419 58.2941 13.8969 58.2941 11.7969C58.2941 9.69695 58.4391 7.95195 58.7291 6.56195C59.0191 5.17195 59.4441 4.06695 60.0041 3.24695C60.5641 2.42695 61.2391 1.84695 62.0291 1.50695C62.8191 1.16695 63.7241 0.996948 64.7441 0.996948C65.7641 0.996948 66.6691 1.16695 67.4591 1.50695C68.2491 1.84695 68.9241 2.42695 69.4841 3.24695C70.0441 4.06695 70.4691 5.17195 70.7591 6.56195C71.0491 7.95195 71.1941 9.69695 71.1941 11.7969C71.1941 13.8969 71.0491 15.6419 70.7591 17.0319C70.4691 18.4219 70.0441 19.5269 69.4841 20.3469ZM68.1791 7.35695C67.9691 6.19695 67.6941 5.27695 67.3541 4.59695C67.0141 3.91695 66.6141 3.44695 66.1541 3.18695C65.6941 2.92695 65.2241 2.79695 64.7441 2.79695C64.2641 2.79695 63.7941 2.92695 63.3341 3.18695C62.8741 3.44695 62.4741 3.91695 62.1341 4.59695C61.7941 5.27695 61.5191 6.19695 61.3091 7.35695C61.0991 8.51695 60.9941 9.99695 60.9941 11.7969C60.9941 13.5969 61.0991 15.0769 61.3091 16.2369C61.5191 17.3969 61.7941 18.3169 62.1341 18.9969C62.4741 19.6769 62.8741 20.1469 63.3341 20.4069C63.7941 20.6669 64.2641 20.7969 64.7441 20.7969C65.2241 20.7969 65.6941 20.6669 66.1541 20.4069C66.6141 20.1469 67.0141 19.6769 67.3541 18.9969C67.6941 18.3169 67.9691 17.3969 68.1791 16.2369C68.3891 15.0769 68.4941 13.5969 68.4941 11.7969C68.4941 9.99695 68.3891 8.51695 68.1791 7.35695ZM51.9941 12.697H45.6941V22.297H42.9941V1.29695H45.6941V10.597H51.9941V1.29695H54.6941V22.297H51.9941V12.697ZM37.7451 22.297L33.9951 13.297L30.2451 22.297H27.5451L32.0451 11.497L27.9951 1.29695H30.6951L33.9951 9.69695L37.2951 1.29695H39.9951L35.9451 11.497L40.4451 22.297H37.7451ZM15.6951 1.29695H25.8951V3.39695H18.3951V10.297H24.9951V12.397H18.3951V20.197H25.8951V22.297H15.6951V1.29695ZM8.49512 22.297H5.79512V3.39695H0.995117V1.29695H13.2951V3.39695H8.49512V22.297Z" fill="white"/>
</svg>
